# xmcd
#
# Track frame offsets:
#	150
#	20618
#	44435
#	67095
#	89563
#	110160
#	138038
#	159705
#	178093
#	204450
#	234273
#	252390
#	276668
#	310933
#
# Disc length: 4440 seconds
#
# Revision: 0
# Processed by: cddbd v1.5.1PL0 Copyright (c) Steve Scherf et al.
# Submitted via: dBpowerAMP V4.0
#
DISCID=d311560e
DTITLE=Chris Rea - The Blue Jukebox
DYEAR=2004
DGENRE=Folk-Rock
TTITLE0=The Beat Goes On
TTITLE1=Long Is The Time, Hard Is The Road
TTITLE2=Let's Do It
TTITLE3=Let It Roll
TTITLE4=Steel River Blues
TTITLE5=Somebody Say Amen
TTITLE6=Blue Street
TTITLE7=Monday Morning
TTITLE8=Restless Soul
TTITLE9=What Kind Of Love Is This
TTITLE10=Paint My Jukebox Blue
TTITLE11=Baby Don't Cry
TTITLE12=Speed
TTITLE13=DATA
EXTD=Name is Burak Kaplan
EXTT0=
EXTT1=
EXTT2=
EXTT3=
EXTT4=
EXTT5=
EXTT6=
EXTT7=
EXTT8=
EXTT9=
EXTT10=
EXTT11=
EXTT12=
EXTT13=
PLAYORDER=
